<?xml version="1.0" standalone="no"?>
<!DOCTYPE svg PUBLIC "-//W3C//DTD SVG 20010904//EN"
 "http://www.w3.org/TR/2001/REC-SVG-20010904/DTD/svg10.dtd">
<svg version="1.0" xmlns="http://www.w3.org/2000/svg"
 width="512.000000pt" height="512.000000pt" viewBox="0 0 512.000000 512.000000"
 preserveAspectRatio="xMidYMid meet">

<g transform="translate(0.000000,512.000000) scale(0.100000,-0.100000)"
fill="#000000" stroke="none">
<path d="M3851 5109 c-78 -31 -121 -96 -121 -183 l0 -54 -55 -31 -55 -31 -50
25 c-66 34 -138 34 -194 1 -32 -19 -55 -47 -101 -125 -33 -56 -62 -101 -66
-101 -3 0 -60 18 -125 39 -370 121 -809 110 -1163 -31 -118 -46 -277 -132
-381 -206 -122 -86 -326 -290 -412 -412 -139 -196 -251 -461 -294 -695 -29
-153 -27 -490 3 -641 33 -162 75 -281 158 -449 94 -189 188 -316 366 -495 74
-74 156 -164 181 -200 98 -139 161 -287 194 -456 28 -145 -3 -134 395 -134
l337 0 4 -106 c3 -97 5 -107 27 -125 30 -25 62 -24 95 2 25 20 26 24 26 125
l0 104 291 0 290 0 -3 -207 c-3 -226 -8 -246 -64 -271 -18 -9 -186 -12 -595
-12 l-571 0 -34 34 c-33 33 -34 36 -34 116 0 77 -2 83 -30 112 -25 24 -36 29
-58 24 -50 -12 -62 -39 -62 -140 0 -70 5 -101 21 -136 38 -85 117 -146 207
-159 42 -6 45 -8 64 -58 21 -58 92 -143 149 -178 78 -50 130 -57 382 -53 228
3 233 4 289 30 79 37 147 107 183 191 28 63 31 67 63 67 78 0 168 64 209 148
l28 57 6 295 c6 323 10 346 79 507 67 158 121 234 300 418 80 83 166 177 191
210 265 345 397 787 361 1203 -7 76 -21 177 -32 226 -20 89 -20 90 -1 110 28
30 41 70 41 125 0 52 3 56 67 91 l41 23 53 -27 c90 -44 188 -26 242 45 50 67
129 219 134 259 10 76 -45 167 -123 202 -22 10 -24 18 -24 73 l0 62 50 31 c80
50 114 126 92 207 -13 48 -103 207 -141 249 -56 61 -147 73 -231 31 l-50 -25
-54 30 -54 31 -4 63 c-5 80 -38 135 -100 165 -39 18 -61 21 -179 20 -74 0
-145 -5 -158 -10z m277 -151 c7 -7 12 -41 12 -83 0 -87 12 -105 92 -146 33
-17 78 -43 100 -60 23 -16 48 -29 56 -29 9 0 44 16 80 36 36 19 74 34 85 32
22 -3 127 -168 127 -200 0 -11 -26 -32 -69 -57 -38 -22 -71 -48 -75 -57 -9
-22 -7 -267 2 -280 4 -6 36 -29 72 -51 36 -22 66 -47 68 -56 5 -23 -106 -207
-124 -207 -9 0 -44 16 -78 35 -35 19 -73 35 -86 35 -12 0 -44 -16 -70 -35 -26
-19 -73 -46 -103 -60 -31 -13 -61 -33 -66 -44 -6 -11 -11 -53 -11 -93 0 -44
-5 -79 -12 -86 -8 -8 -49 -12 -118 -12 -69 0 -110 4 -118 12 -7 7 -12 40 -12
80 0 90 -12 112 -77 142 -29 14 -76 42 -104 61 -28 19 -60 35 -71 35 -11 0
-50 -17 -87 -37 -37 -20 -74 -34 -83 -31 -17 7 -118 180 -118 203 0 9 21 28
46 43 26 15 60 38 75 50 l29 24 0 128 c0 71 -3 136 -6 144 -4 9 -37 35 -75 57
-43 25 -69 46 -69 57 0 9 24 58 53 107 36 62 59 91 73 93 12 2 46 -11 75 -29
66 -40 104 -41 150 -7 18 15 62 40 96 57 82 41 93 59 93 146 0 42 5 76 12 83
8 8 49 12 118 12 69 0 110 -4 118 -12z m-1363 -389 c112 -14 234 -45 342 -86
77 -30 96 -41 113 -70 11 -18 42 -47 69 -64 l50 -31 0 -62 c0 -61 -1 -63 -35
-81 -81 -44 -123 -120 -111 -203 5 -38 103 -218 141 -260 58 -65 148 -79 234
-35 l52 26 43 -23 c64 -35 67 -39 67 -92 0 -63 18 -106 63 -145 47 -41 91 -53
204 -53 l91 0 16 -67 c81 -362 15 -781 -176 -1116 -77 -136 -160 -240 -298
-379 -70 -70 -149 -155 -174 -189 -106 -141 -191 -315 -228 -470 l-22 -89
-659 2 -659 3 -23 90 c-27 105 -50 165 -104 272 -63 124 -134 217 -291 378
-155 159 -210 226 -280 340 -279 453 -308 1036 -76 1519 174 363 502 661 881
801 244 90 501 118 770 84z m145 -4287 c0 -25 -56 -83 -102 -106 -51 -25 -56
-26 -252 -26 -116 0 -218 5 -241 11 -24 7 -57 29 -82 54 -78 78 -90 75 317 75
198 0 360 -3 360 -8z"/>
<path d="M3937 4590 c-101 -26 -197 -105 -240 -198 -33 -70 -31 -208 3 -277
127 -261 495 -261 617 0 24 51 28 72 28 145 -1 73 -5 93 -30 143 -68 137 -239
221 -378 187z m118 -151 c120 -33 177 -157 124 -267 -61 -126 -248 -138 -325
-22 -68 103 -22 244 92 285 48 17 59 18 109 4z"/>
<path d="M2693 4089 c-25 -9 -53 -47 -53 -71 0 -31 44 -66 110 -87 93 -30 183
-86 254 -157 119 -120 176 -253 184 -424 8 -198 -47 -340 -188 -481 -133 -134
-265 -189 -452 -190 -117 0 -197 19 -298 72 -175 91 -294 249 -334 442 -30
143 -12 277 55 414 74 149 195 258 358 319 47 18 91 40 98 50 32 44 -4 114
-60 114 -79 0 -259 -94 -358 -187 -117 -111 -187 -226 -231 -380 -30 -107 -30
-294 0 -404 58 -215 216 -410 410 -508 l42 -21 0 -111 c0 -121 6 -140 55 -184
l34 -30 -19 -315 c-26 -411 -25 -433 4 -495 47 -102 146 -161 258 -153 145 10
249 116 251 257 0 31 -8 203 -18 382 l-19 326 35 31 c46 40 59 86 59 204 l0
94 53 26 c124 61 260 200 331 339 64 126 90 248 83 392 -6 132 -24 203 -76
312 -85 178 -224 311 -401 386 -83 35 -140 48 -167 38z m-153 -1560 c50 0 111
3 135 7 l45 6 0 -66 0 -66 -170 0 -170 0 0 66 0 66 35 -6 c19 -4 75 -7 125 -7z
m85 -281 c2 -7 12 -166 23 -353 21 -372 21 -381 -33 -423 -63 -50 -166 -13
-181 65 -6 32 18 522 32 666 l6 57 74 0 c51 0 76 -4 79 -12z"/>
<path d="M2460 3840 c-46 -11 -95 -66 -104 -116 -10 -50 -19 -55 -66 -37 -46
18 -97 11 -134 -18 -41 -32 -106 -157 -106 -204 0 -44 28 -98 59 -115 27 -14
27 -46 0 -60 -31 -17 -59 -71 -59 -115 0 -47 65 -172 106 -204 37 -29 88 -36
134 -18 47 18 56 13 66 -38 4 -27 20 -53 44 -77 l38 -38 103 0 c84 0 110 4
135 19 32 19 64 74 64 109 0 35 23 44 65 26 80 -33 148 8 209 129 47 92 44
131 -15 191 -22 21 -39 42 -39 46 0 4 17 25 39 46 59 60 62 99 15 191 -39 78
-87 128 -131 139 -14 4 -48 1 -74 -5 -55 -14 -69 -10 -69 23 0 28 -36 82 -71
108 -29 22 -152 33 -209 18z m130 -178 c0 -51 19 -74 95 -116 71 -39 99 -43
129 -21 30 22 41 18 59 -20 17 -35 16 -35 -11 -52 -46 -30 -51 -43 -52 -135 0
-83 1 -87 30 -111 16 -14 34 -27 41 -29 14 -5 -19 -78 -35 -78 -6 0 -20 7 -30
15 -31 23 -69 18 -132 -20 -81 -47 -94 -62 -94 -107 l0 -38 -45 0 c-45 0 -45
0 -45 34 0 51 -8 65 -54 88 -22 11 -52 29 -65 39 -28 22 -66 24 -101 4 -34
-20 -35 -19 -58 20 l-21 34 34 21 c42 26 45 34 45 141 l0 89 -40 26 c-41 27
-42 32 -8 78 14 17 16 17 46 2 41 -21 74 -20 103 3 13 10 43 28 65 39 45 23
54 37 54 86 0 42 5 46 52 46 37 0 38 -1 38 -38z"/>
<path d="M2501 3393 c-11 -10 -24 -32 -27 -50 -13 -67 77 -110 124 -60 29 31
28 72 -3 102 -28 29 -64 32 -94 8z"/>
<path d="M1930 4940 c-30 -30 -27 -83 6 -109 34 -27 57 -26 90 2 54 47 24 127
-47 127 -16 0 -38 -9 -49 -20z"/>
<path d="M3062 4937 c-12 -13 -22 -36 -22 -51 0 -29 39 -76 64 -76 28 0 64 22
75 47 16 36 14 51 -14 78 -31 32 -74 33 -103 2z"/>
<path d="M836 4459 c-29 -23 -36 -73 -13 -100 38 -47 180 -159 201 -159 39 0
76 37 76 75 0 29 -11 43 -82 108 -117 105 -135 113 -182 76z"/>
<path d="M315 3325 c-45 -45 -24 -107 43 -124 20 -5 77 -15 126 -21 82 -12 90
-11 115 7 17 14 27 31 29 54 5 57 -23 74 -158 93 -141 20 -126 21 -155 -9z"/>
<path d="M4695 3345 c-5 -2 -50 -9 -99 -16 -70 -9 -94 -17 -113 -35 -30 -30
-29 -69 3 -101 28 -28 16 -28 198 -2 91 13 116 31 116 83 0 52 -55 88 -105 71z"/>
<path d="M600 2154 c-52 -25 -102 -52 -112 -61 -41 -37 -5 -123 51 -123 29 0
199 77 229 104 46 41 14 127 -47 125 -14 0 -69 -21 -121 -45z"/>
<path d="M4325 2175 c-27 -26 -31 -54 -14 -87 12 -23 207 -118 242 -118 55 0
89 58 63 108 -11 21 -40 39 -120 75 -59 26 -116 47 -127 47 -11 0 -31 -11 -44
-25z"/>
</g>
</svg>
